<?xml version="1.0" encoding="UTF-8"?>
<svg id="Logo_1" data-name="Logo 1" xmlns="http://www.w3.org/2000/svg" viewBox="0 0 1415.33 852.62">
  <defs>
    <style>
      .cls-1, .cls-2, .cls-3, .cls-4, .cls-5 {
        stroke-width: 0px;
      }

      .cls-2 {
        fill: none;
      }

      .cls-3 {
        fill: #fc0404;
      }

      .cls-4 {
        fill: #141c6c;
      }

      .cls-5 {
        fill: #303030;
      }
    </style>
  </defs>
  <g>
    <path class="cls-3" d="M513.64,514.58s-.07-.07-.07-.1c.03-.03.03,0,.03,0,.03.03.03.07.03.1Z"/>
    <path class="cls-3" d="M514.39,515.94c-.2-.3-.37-.64-.54-.98.1.14.17.27.27.44.07.2.17.37.27.54Z"/>
    <path class="cls-3" d="M518.69,523.14c-.17-.24-.34-.47-.47-.71-.58-.95-1.15-1.89-1.69-2.84.71,1.18,1.42,2.37,2.17,3.55Z"/>
    <path class="cls-3" d="M523.73,530.76v.03l-.03-.03c-.85-1.18-1.66-2.4-2.47-3.65.85,1.25,1.66,2.47,2.5,3.65Z"/>
    <path class="cls-3" d="M529.21,314.45c-.1.1-.17.17-.2.27-.91,1.15-1.79,2.33-2.67,3.52-.1.14-.24.3-.34.44.1-.14.2-.3.3-.44.88-1.18,1.76-2.37,2.67-3.52.07-.1.14-.2.24-.27Z"/>
    <path class="cls-5" d="M1394.93,730.81h-414.79c-5.23,0-10.19,2.04-14,5.59,68.36-64.49,115.43-151.36,129.43-248.87l91.4,60.58h.03l91.83,60.9,91.83,60.9,9.17,6.11,26.33,17.45c16.83,11.17,8.94,37.34-11.24,37.34Z"/>
    <path class="cls-3" d="M1099.95,426.32c0,2.79-.03,5.59-.1,8.38-.03,2.37-.1,4.77-.2,7.1-.07,2.73-.2,5.42-.36,8.09-.13,2.43-.3,4.86-.46,7.3-.76,10.19-1.84,20.31-3.29,30.3l.03.03c-14,97.52-61.07,184.39-129.43,248.87-.03.07-.07.1-.1.1-1.91,1.81-3.85,3.58-5.78,5.36-1.25,1.15-2.53,2.3-3.78,3.42-2.2,1.94-4.44,3.88-6.67,5.78-.53.46-1.08.92-1.61,1.35-2.3,1.97-4.63,3.91-7,5.78-5.65,4.57-11.4,9.01-17.29,13.25-1.08.79-2.14,1.58-3.22,2.33-.1.07-.2.13-.26.2-2.3,1.64-4.63,3.29-6.97,4.83-7,4.77-14.13,9.33-21.4,13.67-.13.07-.26.16-.43.23-1.31.79-2.6,1.54-3.91,2.3-3.88,2.3-7.79,4.47-11.73,6.61-2.76,1.48-5.52,2.96-8.28,4.37-1.54.79-3.09,1.58-4.6,2.33-18.5,9.24-37.76,17.12-57.72,23.57-.56.2-1.12.39-1.68.56h-.03c-1.08.33-2.2.66-3.29,1.02-3.32,1.05-6.67,2.04-10.06,2.99-1.51.43-3.06.85-4.57,1.28-8.64,2.33-17.39,4.4-26.23,6.21-1.74.36-3.48.72-5.23,1.05-3.48.66-6.97,1.28-10.48,1.87-4.24.69-8.51,1.35-12.79,1.91-1.74.26-3.48.49-5.26.69-1.05.13-2.14.26-3.22.36-2.63.33-5.26.59-7.92.85-2.23.2-4.5.39-6.74.56-.49.07-.99.1-1.48.13-2.5.2-4.96.36-7.46.49-2.07.13-4.17.23-6.24.33-.85.03-1.74.07-2.63.1-.46.03-.92.07-1.41.07-2.17.07-4.37.13-6.57.16-2.83.07-5.65.1-8.48.1h-233.16c-15.02,0-24.88-15.68-18.34-29.22l14.82-30.7,4.31-8.91,20.02-41.45c3.39-7.03,10.52-11.54,18.34-11.54h194.02c9.17,0,18.27-.39,27.25-1.22h.03c50.78-4.5,97.98-21.46,138.5-47.79,4.34-2.83,8.61-5.75,12.75-8.81,1.38-1.02,2.79-2.04,4.17-3.09h.03c23.07-17.32,43.58-37.8,60.9-60.9,1.74-2.33,3.48-4.7,5.16-7.1.92-1.28,1.84-2.6,2.73-3.91.76-1.12,1.51-2.23,2.27-3.35,1.38-2.14,2.79-4.31,4.11-6.47.62-.89,1.22-1.84,1.74-2.76.56-.95,1.18-1.91,1.74-2.86.56-.92,1.12-1.87,1.71-2.86.62-1.15,1.31-2.3,1.94-3.45.72-1.18,1.35-2.33,1.97-3.52.49-.82.89-1.64,1.31-2.43,1.12-2.04,2.17-4.08,3.22-6.11,1.25-2.4,2.43-4.83,3.58-7.3.07-.2.2-.36.26-.56,0-.07.07-.2.13-.3,1.25-2.6,2.43-5.23,3.62-7.92,1.08-2.4,2.14-4.83,3.02-7.3.49-1.08.92-2.17,1.35-3.29.43-1.05.89-2.14,1.22-3.19.03-.03.03-.1.07-.13.36-.82.62-1.68.92-2.53.69-1.64,1.25-3.35,1.87-5,.3-.92.59-1.84.92-2.76.49-1.51,1.05-3.06,1.51-4.6.39-1.25.79-2.53,1.18-3.78.46-1.51.92-3.09,1.35-4.63.69-2.3,1.31-4.63,1.97-6.97.46-1.97.99-3.91,1.41-5.92.36-1.18.62-2.4.89-3.58.03-.16.1-.33.13-.49.49-2.24.99-4.47,1.41-6.74,4.04-19.65,6.15-40,6.15-60.87,0-5.72-.2-11.4-.53-17.06h-.03v-.03c-.76-14.92-2.63-29.55-5.59-43.81-.92-4.73-1.97-9.4-3.12-14-.1-.2-.13-.39-.23-.59-.03-.1-.03-.23-.07-.33-.26-1.12-.53-2.23-.85-3.32-.43-1.68-.89-3.32-1.38-4.96-.03-.2-.13-.39-.2-.59-.26-1.05-.56-2.14-.89-3.19-.36-1.05-.62-2.1-.99-3.16-.23-.82-.49-1.64-.79-2.5-.49-1.68-1.12-3.35-1.68-5.03-.16-.59-.36-1.15-.59-1.74-.49-1.45-1.02-2.86-1.51-4.34-.46-1.15-.85-2.3-1.31-3.39-.56-1.58-1.15-3.09-1.81-4.67,0-.03,0-.1-.07-.13-1.15-2.99-2.4-6.01-3.71-8.97-.95-2.14-1.91-4.24-2.89-6.34-.59-1.35-1.22-2.66-1.87-3.98-.62-1.35-1.28-2.63-1.87-3.91-.72-1.31-1.35-2.6-2.04-3.88-.62-1.31-1.35-2.63-2.07-3.98-.03-.07-.07-.1-.1-.16-.46-.85-.92-1.71-1.38-2.56-.46-.85-.99-1.74-1.45-2.53-.79-1.41-1.54-2.83-2.33-4.17-1.12-1.84-2.2-3.71-3.35-5.59-1.25-1.97-2.43-3.91-3.71-5.85v-.03c-3.94-6.11-8.09-12.1-12.46-17.91-17.32-23.11-37.83-43.58-60.9-60.9h-.03c-1.87-1.45-3.78-2.79-5.65-4.17-1.94-1.35-3.91-2.73-5.85-4.08-1.91-1.31-3.85-2.6-5.75-3.81-1.77-1.15-3.52-2.27-5.32-3.39-6.44-3.98-13.05-7.76-19.82-11.27-1.81-.92-3.58-1.84-5.42-2.73-1.84-.95-3.75-1.87-5.65-2.73-.39-.23-.82-.43-1.25-.59-1.97-.92-3.91-1.84-5.92-2.66-1.68-.76-3.42-1.51-5.13-2.2-4.34-1.84-8.74-3.52-13.21-5.16-1.22-.43-2.4-.85-3.62-1.28-1.45-.49-2.93-1.02-4.37-1.45-.16-.1-.36-.13-.56-.2-1.74-.59-3.45-1.15-5.23-1.68-.72-.23-1.41-.43-2.14-.66-1.61-.49-3.22-.95-4.83-1.38-.39-.13-.79-.26-1.18-.36-2.53-.69-5.06-1.38-7.66-2-1.45-.39-2.93-.72-4.44-1.05-2.86-.69-5.75-1.35-8.61-1.94-3.06-.62-6.08-1.18-9.14-1.71-1.41-.23-2.83-.46-4.27-.69-2.27-.33-4.54-.69-6.8-.99-1.41-.2-2.83-.36-4.24-.53-3.02-.39-6.08-.69-9.1-.95-.85-.1-1.71-.16-2.56-.26-1.94-.16-3.91-.3-5.85-.39-2.07-.13-4.21-.26-6.34-.33-2.1-.1-4.24-.16-6.38-.2-2.1-.03-4.27-.07-6.41-.07H101.46c-5.39,0-10.58-2.17-14.4-5.98l-54.92-54.92L6.02,34.77C-6.83,21.92,2.27,0,20.41,0h653.21c2.96,0,5.92.03,8.84.1,2.43.03,4.83.1,7.23.23,5.62.16,11.18.49,16.73.92,1.38.1,2.76.2,4.11.33,1.18.1,2.37.2,3.52.33,2.86.23,5.69.53,8.51.89,3.58.39,7.13.85,10.68,1.35,1.41.2,2.83.39,4.21.59.95.16,1.91.3,2.86.46,1.18.16,2.37.36,3.52.56,1.77.3,3.52.59,5.26.92,1.58.26,3.16.56,4.7.85.56.1,1.12.23,1.68.33,2.7.49,5.39,1.05,8.09,1.68,3.85.79,7.69,1.68,11.5,2.6,1.35.33,2.66.66,4.01,1.02,7.4,1.87,14.72,3.94,21.96,6.21,2.3.72,4.6,1.45,6.87,2.24.82.26,1.64.53,2.47.82,1.64.56,3.29,1.12,4.93,1.68,3.29,1.18,6.54,2.37,9.79,3.62,3.25,1.22,6.48,2.5,9.7,3.81,3.19,1.28,6.38,2.66,9.56,4.04,1.58.69,3.16,1.38,4.73,2.1,3.12,1.38,6.24,2.86,9.37,4.37,3.12,1.51,6.21,3.02,9.27,4.6,1.51.79,3.06,1.58,4.57,2.4,1.35.69,2.7,1.41,4.04,2.14,1.84.99,3.68,2,5.52,3.06,1.35.72,2.66,1.48,3.98,2.27,6.15,3.52,12.19,7.2,18.14,11.01,2.7,1.71,5.36,3.48,8.02,5.29,2.83,1.91,5.65,3.88,8.45,5.85,2.76,1.97,5.52,4.01,8.28,6.05,1.35,1.02,2.73,2.04,4.08,3.09,3.88,2.93,7.69,5.95,11.44,9.07,2.07,1.71,4.14,3.45,6.18,5.19,1.12.95,2.2,1.87,3.29,2.86,2.2,1.91,4.4,3.85,6.57,5.85,2.43,2.2,4.83,4.44,7.2,6.71.1.07.2.16.3.26,1.41,1.38,2.79,2.73,4.17,4.08,2.07,2,4.11,4.04,6.15,6.11.23.2.39.39.59.59,1.81,1.87,3.62,3.75,5.39,5.65,1.97,2.07,3.94,4.21,5.88,6.34,1.94,2.14,3.85,4.27,5.72,6.44,3.45,3.98,6.84,8.05,10.16,12.16,1.08,1.31,2.14,2.66,3.19,4.01,2,2.5,3.94,5.03,5.85,7.59.82,1.08,1.64,2.2,2.43,3.29,1.05,1.45,2.1,2.89,3.16,4.34.3.39.56.79.85,1.18.72,1.05,1.48,2.1,2.2,3.19,1.68,2.4,3.32,4.8,4.96,7.23,4.5,6.74,8.81,13.61,12.95,20.61.69,1.18,1.38,2.37,2.04,3.55,1.74,3.02,3.45,6.05,5.06,9.1,1.45,2.6,2.86,5.26,4.21,7.92,4.63,8.94,8.94,18.11,12.92,27.41.95,2.2,1.87,4.4,2.79,6.64.1.23.23.49.3.76,1.02,2.5,2.04,5.03,2.99,7.56.99,2.53,1.94,5.09,2.86,7.66.82,2.27,1.61,4.54,2.4,6.8.3.85.59,1.71.85,2.56.72,2.04,1.38,4.08,2.04,6.15.69,2.14,1.35,4.27,2,6.44.95,3.12,1.84,6.24,2.7,9.4.66,2.3,1.25,4.6,1.87,6.9.03.13.07.26.1.36,1.22,4.9,2.4,9.83,3.48,14.76.59,2.6,1.12,5.19,1.64,7.79.49,2.5.95,5.03,1.41,7.56.92,5.16,1.77,10.32,2.5,15.55,1.77,12.42,3.06,25.05,3.75,37.8.13,2.56.26,5.09.33,7.66.1,2.4.16,4.77.2,7.16.07,2.76.1,5.52.1,8.28Z"/>
  </g>
  <path class="cls-1" d="M587.71,340c.14-.17.27-.3.41-.41-.03.03-.07.1-.14.17-.07.03-.14.1-.2.2,0,0-.03,0-.07.03Z"/>
  <path class="cls-1" d="M628.78,539.59c-.24-.07-.47-.17-.71-.27-.37-.17-.74-.3-1.12-.47.47.2.95.41,1.45.58.14.07.24.1.37.17Z"/>
  <path class="cls-1" d="M781.28,369.33c-.71-1.32-1.45-2.64-2.2-3.92-2.64-4.53-5.55-8.93-8.7-13.06,3.18,4.13,6.09,8.53,8.73,13.06.74,1.29,1.49,2.61,2.17,3.92Z"/>
  <path class="cls-1" d="M780.87,484c-.14.3-.3.61-.47.91-.1.17-.17.3-.24.44-.07.1-.14.2-.17.3-.07.1-.14.2-.17.3-.07.1-.1.2-.17.27-.17.34-.34.64-.54.98-2.64,4.53-5.55,8.93-8.73,13.06,3.15-4.13,6.06-8.53,8.7-13.06.61-1.05,1.22-2.13,1.79-3.21Z"/>
  <path class="cls-1" d="M784.46,476.82c-.54,1.18-1.08,2.37-1.66,3.52-.3.61-.61,1.18-.91,1.76.3-.58.61-1.18.88-1.76.58-1.15,1.15-2.33,1.69-3.52Z"/>
  <path class="cls-1" d="M788.82,465.9c-.3.88-.61,1.76-.91,2.61-.03.1-.07.17-.1.27t-.03.07c-.24.61-.44,1.22-.71,1.83.17-.41.34-.81.47-1.25.44-1.15.85-2.33,1.29-3.52Z"/>
  <path class="cls-2" d="M785,281.53c-6.83-5.31-14.04-10.12-21.62-14.38M528.97,314.72h.03c.03-.1.1-.17.2-.27-.1.07-.17.17-.24.27ZM526.3,318.24h.03c.85-1.18,1.73-2.37,2.64-3.52-.91,1.15-1.79,2.33-2.67,3.52ZM523.69,530.76l.03.03v-.03h-.03ZM458.49,487.21h-.03l60.9,60.9-60.87-60.9ZM514.12,515.4c-.1-.17-.17-.3-.27-.44.17.34.34.68.54.98-.1-.17-.2-.34-.27-.54ZM397.59,426.31h-.03l34.92,34.92-34.88-34.92ZM528.97,314.72h.03c.03-.1.1-.17.2-.27-.1.07-.17.17-.24.27ZM526.3,318.24h.03c.85-1.18,1.73-2.37,2.64-3.52-.91,1.15-1.79,2.33-2.67,3.52ZM523.69,530.76l.03.03v-.03h-.03ZM458.49,487.21h-.03l60.9,60.9-60.87-60.9ZM514.12,515.4c-.1-.17-.17-.3-.27-.44.17.34.34.68.54.98-.1-.17-.2-.34-.27-.54ZM397.59,426.31h-.03l34.92,34.92-34.88-34.92ZM528.97,314.72h.03c.03-.1.1-.17.2-.27-.1.07-.17.17-.24.27ZM526.3,318.24h.03c.85-1.18,1.73-2.37,2.64-3.52-.91,1.15-1.79,2.33-2.67,3.52ZM523.69,530.76l.03.03v-.03h-.03ZM458.49,487.21h-.03l60.9,60.9-60.87-60.9ZM514.12,515.4c-.1-.17-.17-.3-.27-.44.17.34.34.68.54.98-.1-.17-.2-.34-.27-.54ZM397.59,426.31h-.03l34.92,34.92-34.88-34.92ZM336.69,365.41h-.03l33.63,33.63-33.6-33.63ZM514.12,515.4c-.1-.17-.17-.3-.27-.44.17.34.34.68.54.98-.1-.17-.2-.34-.27-.54ZM516.52,519.59c.54.95,1.12,1.89,1.69,2.84.14.24.3.47.47.71-.74-1.18-1.45-2.37-2.17-3.55ZM521.22,527.1c.81,1.25,1.62,2.47,2.47,3.65l.03.03v-.03c-.85-1.18-1.66-2.4-2.5-3.65ZM628.41,539.42c-.14-.03-.24-.07-.34-.1.24.1.47.2.71.27-.14-.07-.24-.1-.37-.17ZM528.97,314.72c-.91,1.15-1.79,2.33-2.67,3.52-.1.14-.2.3-.3.44.1-.14.24-.3.34-.44.88-1.18,1.76-2.37,2.67-3.52.03-.1.1-.17.2-.27-.1.07-.17.17-.24.27ZM559.73,469.62h-.03c.07.1.1.24.17.37-.07-.14-.1-.27-.14-.37ZM559.69,383h.03c.03-.1.07-.24.14-.37-.07.14-.1.27-.17.37ZM779.08,487.21c-2.64,4.53-5.55,8.93-8.7,13.06,3.18-4.13,6.09-8.53,8.73-13.06.2-.34.37-.64.54-.98-.2.34-.41.68-.58.98ZM779.11,365.41c-2.64-4.53-5.55-8.93-8.73-13.06,3.15,4.13,6.06,8.53,8.7,13.06.74,1.29,1.49,2.61,2.2,3.92-.68-1.32-1.42-2.64-2.17-3.92ZM782.77,480.34c-.27.58-.58,1.18-.88,1.76.3-.58.61-1.15.91-1.76h-.03ZM787.54,469.41c-.14.44-.3.85-.47,1.25.27-.61.47-1.22.71-1.83-.07.2-.14.41-.24.58ZM458.49,487.21h-.03l60.9,60.9-60.87-60.9ZM397.59,426.31h-.03l34.92,34.92-34.88-34.92ZM952.75,548.11c1.08-2.4,2.13-4.84,3.05-7.31-.98,2.47-2,4.91-3.05,7.31ZM397.59,426.31h-.03l34.92,34.92-34.88-34.92ZM514.12,515.4c-.1-.17-.17-.3-.27-.44.17.34.34.68.54.98-.1-.17-.2-.34-.27-.54ZM458.49,487.21h-.03l60.9,60.9-60.87-60.9ZM523.69,530.76l.03.03v-.03h-.03ZM526.3,318.24h.03c.85-1.18,1.73-2.37,2.64-3.52-.91,1.15-1.79,2.33-2.67,3.52ZM528.97,314.72h.03c.03-.1.1-.17.2-.27-.1.07-.17.17-.24.27ZM397.59,426.31h-.03l34.92,34.92-34.88-34.92ZM514.12,515.4c-.1-.17-.17-.3-.27-.44.17.34.34.68.54.98-.1-.17-.2-.34-.27-.54ZM458.49,487.21h-.03l60.9,60.9-60.87-60.9ZM523.69,530.76l.03.03v-.03h-.03ZM526.3,318.24h.03c.85-1.18,1.73-2.37,2.64-3.52-.91,1.15-1.79,2.33-2.67,3.52ZM528.97,314.72h.03c.03-.1.1-.17.2-.27-.1.07-.17.17-.24.27ZM397.59,426.31h-.03l34.92,34.92-34.88-34.92ZM514.12,515.4c-.1-.17-.17-.3-.27-.44.17.34.34.68.54.98-.1-.17-.2-.34-.27-.54ZM458.49,487.21h-.03l60.9,60.9-60.87-60.9ZM523.69,530.76l.03.03v-.03h-.03ZM526.3,318.24h.03c.85-1.18,1.73-2.37,2.64-3.52-.91,1.15-1.79,2.33-2.67,3.52ZM528.97,314.72h.03c.03-.1.1-.17.2-.27-.1.07-.17.17-.24.27ZM397.59,426.31h-.03l34.92,34.92-34.88-34.92ZM514.12,515.4c-.1-.17-.17-.3-.27-.44.17.34.34.68.54.98-.1-.17-.2-.34-.27-.54ZM458.49,487.21h-.03l60.9,60.9-60.87-60.9ZM523.69,530.76l.03.03v-.03h-.03ZM526.3,318.24h.03c.85-1.18,1.73-2.37,2.64-3.52-.91,1.15-1.79,2.33-2.67,3.52ZM528.97,314.72h.03c.03-.1.1-.17.2-.27-.1.07-.17.17-.24.27Z"/>
  <path class="cls-5" d="M795.42,426.31c0,2.06-.07,4.13-.17,6.16-.07,1.39-.14,2.77-.27,4.13-.1,1.35-.24,2.71-.41,4.06-.17,1.15-.3,2.33-.47,3.48,0,.14-.03.24-.03.37-.03.14-.03.27-.07.41,0,.03,0,.07-.03.1-.14,1.02-.3,2.03-.51,3.01-.14.88-.3,1.73-.47,2.57-.1.58-.24,1.18-.37,1.76-.03.24-.1.44-.17.68-.17.81-.34,1.62-.54,2.44-.03.07-.03.17-.07.24-.14.51-.24.98-.37,1.49-.03.1-.07.24-.1.34-.07.27-.14.54-.2.81-.07.34-.17.68-.3.98-.03.14-.07.3-.14.44-.2.78-.41,1.52-.64,2.3-.41,1.29-.81,2.57-1.25,3.82-.44,1.18-.85,2.37-1.29,3.52-.14.44-.3.85-.47,1.25-.1.27-.2.51-.3.78-.37.91-.71,1.83-1.12,2.71-.37.88-.78,1.76-1.18,2.67-.54,1.18-1.12,2.37-1.69,3.52-.27.58-.58,1.18-.88,1.76-.07.1-.14.24-.2.37-.03.14-.1.27-.2.37-.2.41-.41.78-.61,1.15-.58,1.08-1.18,2.17-1.79,3.21-2.64,4.53-5.55,8.93-8.7,13.06-.81,1.05-1.62,2.06-2.44,3.08-1.66,2.03-3.35,3.99-5.14,5.92-.61.61-1.18,1.25-1.79,1.86-.3.3-.61.64-.95.95-.68.71-1.39,1.39-2.1,2.06-.68.68-1.42,1.35-2.13,2-.71.64-1.39,1.29-2.1,1.89-.74.68-1.52,1.35-2.3,2h-.03c-.68.58-1.32,1.08-2,1.62-.58.44-1.15.91-1.73,1.35-.1.07-.2.17-.3.24-.51.37-1.02.74-1.52,1.12-.2.17-.44.34-.64.47-1.05.78-2.13,1.52-3.21,2.27-.81.58-1.62,1.12-2.47,1.62-.71.47-1.42.95-2.17,1.39-.1.03-.2.1-.3.17-.81.51-1.66,1.02-2.54,1.52-.85.51-1.73.98-2.57,1.45-.88.47-1.76.95-2.64,1.39-.85.47-1.73.88-2.64,1.32-.85.41-1.69.81-2.57,1.22-.95.44-1.89.85-2.84,1.25-.98.41-1.93.81-2.91,1.22-.74.27-1.52.58-2.3.85-1.32.51-2.64.98-3.96,1.39-.41.14-.81.27-1.18.41-.41.14-.78.27-1.18.37-.81.24-1.62.51-2.4.71-1.69.51-3.42.95-5.14,1.39-.98.2-1.93.44-2.91.64-.14.03-.27.03-.41.07-1.69.37-3.38.68-5.11.98-.81.14-1.62.27-2.47.37-.68.1-1.35.2-2.03.27-2.06.27-4.13.47-6.23.64-1.02.1-2.06.17-3.11.2-2.06.1-4.2.17-6.29.17-9.44,0-18.54-1.08-27.37-3.08h-.03c-.17-.03-.3-.07-.47-.14-.2-.03-.37-.07-.58-.14-.03,0-.1-.03-.14-.03-1.35-.3-2.67-.64-3.96-1.02-.51-.14-.98-.27-1.46-.41-.51-.14-1.02-.3-1.52-.44-.07-.03-.1-.03-.17-.07-.3-.07-.64-.17-.95-.27-.51-.17-.98-.34-1.49-.47-.27-.1-.51-.17-.78-.27-.24-.07-.47-.14-.71-.24h-.03c-.81-.3-1.62-.58-2.44-.88-.51-.2-1.05-.41-1.56-.61-.1-.03-.2-.07-.3-.14-.24-.1-.44-.17-.68-.24-.07-.03-.14-.07-.2-.1-.14-.07-.24-.1-.37-.17-.51-.17-.98-.37-1.45-.58-.1-.03-.17-.07-.27-.1-.14-.07-.27-.1-.41-.17-.03,0-.03-.03-.07-.03-.3-.1-.61-.24-.91-.37-1.32-.58-2.57-1.15-3.86-1.76-1.39-.64-2.71-1.32-4.06-2.03-5.92-3.08-11.54-6.63-16.85-10.62-1.08-.81-2.1-1.62-3.15-2.47-.68-.51-1.32-1.05-1.96-1.59-2.64-2.2-5.14-4.5-7.58-6.94l-.03-.03-.03-.03c-.34-.34-.64-.64-.98-.98-.3-.34-.64-.68-.95-1.02-.24-.2-.44-.41-.61-.61-.47-.47-.91-.91-1.29-1.39-.07-.07-.14-.17-.2-.24-.61-.64-1.22-1.32-1.79-2-.03-.03-.1-.1-.14-.14-.54-.58-1.05-1.18-1.49-1.76-.03-.07-.1-.1-.14-.17-.14-.14-.24-.3-.37-.44-.41-.47-.78-.95-1.18-1.42-.24-.3-.47-.61-.71-.91-.1-.1-.17-.17-.24-.27,0-.03-.03-.07-.07-.1-.14-.17-.27-.34-.41-.51-.34-.44-.68-.88-.98-1.32-.17-.17-.3-.34-.44-.54-.07-.14-.17-.27-.27-.41-.37-.47-.71-.98-1.08-1.45-.1-.14-.2-.3-.34-.47,0-.03-.03-.03-.03-.07-.78-1.08-1.52-2.17-2.23-3.28-.34-.44-.61-.91-.88-1.35-.98-1.52-1.93-3.08-2.84-4.64-1.32-2.23-2.54-4.53-3.69-6.87-1.15-2.3-2.23-4.67-3.25-7.11-.47-1.08-.91-2.17-1.32-3.25-.07-.14-.1-.27-.14-.37-.44-1.22-.91-2.47-1.32-3.72-.07-.17-.14-.3-.17-.47-.37-1.08-.71-2.17-1.05-3.28-.07-.2-.14-.44-.2-.64-.68-2.3-1.32-4.6-1.89-6.94-.27-1.15-.54-2.33-.78-3.52-.24-1.18-.47-2.37-.68-3.55-.27-1.59-.51-3.18-.74-4.8-.71-5.35-1.08-10.83-1.08-16.38s.37-11.03,1.08-16.38c.27-2,.58-3.99.95-5.95.17-.98.37-1.96.58-2.94s.44-1.93.68-2.91c.3-1.29.64-2.57.98-3.86.27-1.05.58-2.1.91-3.15.07-.2.14-.44.2-.64.34-1.12.68-2.2,1.05-3.28.03-.17.1-.3.17-.47.41-1.25.88-2.5,1.32-3.72.03-.1.07-.24.14-.37.41-1.08.85-2.17,1.32-3.25,1.02-2.44,2.1-4.8,3.25-7.11,1.15-2.33,2.37-4.64,3.69-6.87.81-1.42,1.66-2.81,2.54-4.16.14-.24.3-.47.44-.71.14-.17.24-.37.37-.58.03-.07.07-.1.1-.17s.1-.14.14-.2c.14-.2.27-.41.41-.61.2-.3.41-.61.64-.91.2-.34.44-.68.68-.98.03-.1.1-.17.17-.27.3-.44.61-.88.91-1.32.34-.47.68-.95,1.05-1.42.27-.41.58-.78.91-1.18.24-.37.51-.71.81-1.08.07-.1.14-.17.2-.27.17-.24.34-.44.51-.68.24-.3.51-.61.78-.91.17-.24.34-.44.51-.68.14-.14.24-.3.37-.44.64-.81,1.32-1.62,2.03-2.44.03-.03.07-.1.1-.14.58-.61,1.12-1.25,1.69-1.86.51-.58,1.05-1.15,1.62-1.73,0-.03.07-.1.1-.14.34-.37.68-.71,1.02-1.05l.07-.07c.34-.37.71-.74,1.05-1.08.07-.07.14-.14.2-.2.03-.03.07-.03.07-.07.03-.03.07-.03.1-.07.03-.03.07-.03.07-.03.07-.1.14-.17.2-.2.07-.07.1-.14.14-.17.07-.03.1-.1.14-.14.1-.1.2-.17.3-.27.68-.74,1.35-1.39,2.06-2.03,1.08-1.02,2.17-2,3.32-2.98.03,0,.07-.03.1-.07,0-.03.03-.07.07-.07.07-.03.1-.1.17-.14.41-.37.88-.74,1.32-1.12.27-.24.54-.47.85-.71.17-.14.34-.3.51-.44.14-.1.3-.24.47-.37.1-.07.2-.17.3-.24.17-.14.37-.3.54-.44.1-.07.2-.17.3-.24.71-.58,1.46-1.12,2.2-1.66.68-.51,1.35-1.02,2.03-1.49.51-.37,1.05-.74,1.59-1.12.61-.41,1.22-.85,1.86-1.25.61-.44,1.22-.85,1.86-1.22,1.08-.71,2.2-1.39,3.32-2.06.17-.07.3-.17.44-.27.14-.07.27-.17.44-.24.07-.03.14-.07.17-.1.07-.07.14-.07.2-.1.14-.1.27-.17.41-.24.17-.14.34-.2.51-.3.58-.34,1.12-.64,1.69-.95.95-.54,1.93-1.05,2.91-1.52.03-.03.07-.07.1-.07,1.15-.61,2.33-1.18,3.52-1.73,1.18-.58,2.33-1.08,3.52-1.59,1.08-.47,2.17-.91,3.25-1.35.1-.03.2-.07.3-.1.41-.17.88-.34,1.32-.54.1-.03.17-.07.27-.1.1-.03.24-.07.37-.14,1.86-.71,3.76-1.35,5.68-1.96.54-.17,1.12-.34,1.66-.51.54-.17,1.12-.3,1.66-.47.1-.03.17-.07.27-.1.64-.2,1.32-.37,2-.54.91-.27,1.86-.51,2.81-.71t.07-.03c.64-.14,1.29-.3,1.93-.44.44-.1.85-.2,1.29-.27.44-.1.85-.2,1.29-.27h.03c.2-.03.41-.07.61-.14.3-.03.61-.1.95-.17.61-.14,1.22-.24,1.86-.34,1.05-.2,2.13-.34,3.21-.51.58-.1,1.18-.17,1.79-.24.61-.07,1.22-.14,1.83-.2.85-.1,1.69-.2,2.54-.27.17-.03.37-.03.54-.07h.2c1.02-.1,2.06-.17,3.08-.24,2.17-.14,4.3-.24,6.46-.24h1.02c2.1,0,4.23.07,6.29.17,1.05.03,2.1.1,3.11.2,2.1.17,4.16.37,6.23.64.68.07,1.35.17,2.03.27.85.1,1.66.24,2.47.37,1.02.17,2.03.37,3.05.58.68.1,1.39.24,2.06.41.14.03.27.03.41.1.74.14,1.49.3,2.23.47.24.07.44.1.68.17,1.73.41,3.45.85,5.14,1.35.78.2,1.59.47,2.4.71.41.1.78.24,1.18.37.37.14.78.27,1.18.41,1.32.41,2.64.88,3.96,1.39.78.27,1.56.58,2.3.85.98.41,1.93.81,2.91,1.22.95.41,1.89.81,2.84,1.25.88.41,1.73.81,2.57,1.22.91.41,1.79.85,2.64,1.32.88.44,1.76.91,2.64,1.39.85.47,1.73.95,2.57,1.45.44.24.85.47,1.25.74.44.27.88.54,1.29.78.1.07.2.14.3.17.71.47,1.45.91,2.17,1.39.85.51,1.66,1.05,2.47,1.62,1.08.74,2.17,1.49,3.21,2.27.24.17.44.3.64.47.17.14.34.24.51.37.27.2.54.41.81.61.07.03.14.1.2.14.1.07.2.17.3.24.58.44,1.15.91,1.73,1.35.68.54,1.35,1.08,2,1.62h.03c.47.41.95.81,1.39,1.22,1.02.88,2.03,1.76,3.01,2.67.71.64,1.45,1.32,2.13,2,.71.68,1.42,1.35,2.1,2.06.34.3.64.64.95.95.61.61,1.18,1.25,1.79,1.86,1.79,1.93,3.48,3.89,5.14,5.92.81,1.02,1.62,2.03,2.44,3.08,3.15,4.13,6.06,8.53,8.7,13.06.74,1.29,1.49,2.61,2.2,3.92,1.29,2.4,2.5,4.87,3.62,7.41.1.2.2.44.3.68.37.85.74,1.69,1.08,2.57.17.34.3.68.41,1.02.17.34.3.68.41,1.02.03.07.07.14.1.24.17.44.34.85.47,1.29.07.14.1.27.14.41t.03.07c.2.51.41,1.02.58,1.52.03.07.07.14.1.24,0,.03.03.1.03.14.07.2.17.44.24.64.24.64.44,1.29.64,1.89.03.1.07.24.1.34.07.14.1.3.14.44.2.58.37,1.15.54,1.73.37,1.18.71,2.33,1.02,3.52.41,1.45.78,2.94,1.12,4.43v.03c1.96,8.8,3.08,17.97,3.08,27.37Z"/>
  <path class="cls-3" d="M523.73,530.79c1.38,1.97,2.79,3.92,4.25,5.83,3.59,4.72.28,11.49-5.65,11.49h0c-1.9,0-3.71-.75-5.06-2.09l-58.78-58.81h-.03l-25.99-25.99-34.88-34.92h-.03l-27.27-27.27-33.6-33.63h-.03l-19.52-19.56-29.15-29.15c-4.5-4.5-1.31-12.2,5.05-12.2h244.46c-1.12,1.25-2.23,2.5-3.28,3.79-.51.58-.98,1.12-1.45,1.73-.58.68-1.15,1.35-1.69,2.06-.37.44-.74.88-1.08,1.35-.27.3-.54.64-.78,1.02-.1.07-.17.17-.24.27-.91,1.15-1.79,2.33-2.67,3.52-.1.14-.2.3-.3.44-.68.88-1.32,1.79-1.96,2.74-.24.3-.47.64-.68.98-.41.54-.78,1.12-1.18,1.69-.17.24-.34.51-.47.74-.03.03-.07.07-.07.1-.14.17-.27.37-.37.58-.07.03-.1.07-.1.14v.03s-.07.07-.07.1c-.07.03-.1.07-.1.14-.1.1-.17.2-.2.3-.1.1-.17.2-.2.3-.24.37-.51.74-.71,1.15-.07.03-.1.07-.1.14-1.15,1.76-2.27,3.52-3.32,5.31-.51.81-.98,1.62-1.42,2.44-.51.85-.98,1.69-1.42,2.54-.41.68-.78,1.35-1.12,2.03-.44.78-.85,1.52-1.22,2.3-.41.78-.81,1.56-1.18,2.3-1.32,2.67-2.61,5.38-3.79,8.12-.47,1.02-.91,2.06-1.32,3.11-.44,1.02-.88,2.06-1.25,3.11-.44,1.05-.85,2.1-1.22,3.15-.41,1.05-.81,2.1-1.18,3.18-6.77,19.05-10.42,39.55-10.42,60.9s3.65,41.85,10.42,60.9c.37,1.08.78,2.13,1.18,3.18.37,1.05.78,2.1,1.22,3.15.37,1.05.81,2.1,1.25,3.11.41,1.05.85,2.1,1.32,3.11,1.18,2.74,2.47,5.45,3.79,8.12.74,1.49,1.52,2.94,2.3,4.43.07.17.17.34.27.51.14.27.27.51.44.78.03.14.1.27.2.37.07.17.14.3.24.44l.03.03v.03s.03.07.07.1l.03.03s0,.07.03.1c.03.1.07.17.14.24.17.34.34.68.54.98.3.58.64,1.15.98,1.73.37.64.74,1.29,1.15,1.93.54.95,1.12,1.89,1.69,2.84.14.24.3.47.47.71,0,.07.03.1.1.17.78,1.29,1.59,2.54,2.44,3.79.81,1.25,1.62,2.47,2.47,3.65l.03.03Z"/>
  <path class="cls-4" d="M917.23,426.31c0,21.05-2.71,41.45-7.71,60.9-.27,1.08-.54,2.2-.88,3.28-.27,1.12-.54,2.2-.91,3.28-.17.78-.41,1.56-.64,2.33-.07.17-.1.3-.17.44-.58,2.03-1.22,4.06-1.86,6.06-1.05,3.15-2.13,6.26-3.35,9.37-.71,1.96-1.49,3.89-2.27,5.82-.27.64-.51,1.25-.74,1.89-.95,2.2-1.86,4.36-2.84,6.5,0,.03-.03.07-.03.07-.44,1.02-.91,2.06-1.39,3.08-.51,1.02-.98,2.03-1.45,3.05-.34.68-.64,1.35-.98,2.03-.1.24-.27.44-.37.68-.95,2-2,3.96-3.01,5.89-.68,1.18-1.32,2.4-2,3.59-.64,1.18-1.32,2.37-2.03,3.55-.81,1.42-1.66,2.84-2.54,4.26-.81,1.42-1.69,2.81-2.57,4.23-.88,1.39-1.79,2.77-2.71,4.16-1.35,2.06-2.81,4.13-4.2,6.16-.91,1.25-1.83,2.54-2.77,3.79-.47.71-1.05,1.39-1.56,2.1-.88,1.18-1.83,2.37-2.77,3.55-.91,1.18-1.83,2.37-2.77,3.52-1.86,2.33-3.79,4.64-5.82,6.87-.78.91-1.56,1.79-2.4,2.67,0,.03-.07.1-.1.14-1.35,1.56-2.81,3.08-4.23,4.57-1.79,1.93-3.65,3.86-5.55,5.72-1.15,1.12-2.3,2.2-3.42,3.28-1.05.98-2.1,1.93-3.15,2.88-1.08,1.02-2.2,2-3.32,3.01h-.03c-42.94,37.93-99.34,60.9-161.05,60.9h-155.31c-10.22,0-16.93-10.68-12.49-19.89l16.02-33.2h0c2.32-4.78,7.16-7.82,12.48-7.82h139.31c1.76,0,3.48-.03,5.21-.07.17,0,.37,0,.58-.03,1.12-.03,2.3-.07,3.38-.14h.2c.58-.03,1.12-.07,1.73-.1,1.42-.07,2.77-.17,4.23-.3,1.39-.1,2.77-.24,4.2-.41,1.69-.17,3.38-.37,5.08-.61,1.52-.2,3.05-.44,4.64-.68.1-.03.24-.03.34-.07,1.56-.24,3.08-.51,4.57-.81,5.11-.95,10.15-2.13,15.06-3.52,1.42-.37,2.84-.78,4.23-1.22,2.03-.61,3.96-1.25,5.92-1.93,1.42-.47,2.88-.98,4.23-1.52.03,0,.1,0,.14-.03,1.08-.37,2.13-.78,3.18-1.22,1.08-.41,2.17-.85,3.25-1.32,1.02-.41,2.03-.85,2.98-1.29,1.18-.47,2.3-.98,3.45-1.52,1.15-.54,2.37-1.12,3.52-1.69,1.35-.64,2.67-1.32,3.96-2,.61-.3,1.18-.61,1.73-.91.17-.07.3-.14.37-.2.71-.37,1.42-.74,2.1-1.12,1.76-.98,3.59-2.03,5.31-3.08.07-.03.2-.1.24-.17.98-.54,1.89-1.12,2.88-1.73,1.39-.88,2.81-1.76,4.16-2.67,1.25-.85,2.47-1.69,3.69-2.54.64-.44,1.32-.88,1.93-1.35.64-.41,1.25-.88,1.89-1.39,2.54-1.86,5.01-3.79,7.41-5.79,1.18-.95,2.3-1.89,3.38-2.84.24-.17.44-.34.64-.54.81-.71,1.66-1.42,2.47-2.17.76-.72,1.51-1.45,2.33-2.17s1.66-1.51,2.45-2.3c1.22-1.23,2.49-2.42,3.61-3.68.78-.74,1.56-1.52,2.3-2.33,1.05-1.12,2.1-2.3,3.15-3.45,1.05-1.08,2.03-2.2,2.94-3.35,1.89-2.23,3.76-4.5,5.55-6.87.37-.47.74-.95,1.15-1.45.34-.47.74-.98,1.12-1.49v-.03s.07-.1.1-.14c.98-1.32,2-2.64,2.94-4.03.85-1.18,1.66-2.4,2.47-3.65.78-1.15,1.49-2.3,2.23-3.49.85-1.32,1.69-2.67,2.47-4.03.47-.74.91-1.52,1.35-2.3.07-.1.1-.2.14-.3.14-.17.2-.3.27-.47.58-.95,1.15-1.89,1.62-2.84.37-.61.71-1.22.98-1.83.91-1.73,1.86-3.49,2.71-5.24,1.05-2.1,2-4.2,2.98-6.33.68-1.52,1.32-3.08,1.93-4.64.44-.98.78-1.93,1.18-2.91.71-1.83,1.39-3.65,2.03-5.52,6.77-19.05,10.46-39.55,10.46-60.9s-3.69-41.85-10.46-60.9c-1.69-4.84-3.62-9.58-5.72-14.24v-.07c-.91-2.03-1.89-4.06-2.84-6.06-.14-.24-.24-.47-.34-.68-1.02-1.96-2.03-3.89-3.11-5.82-1.08-2.03-2.27-4.06-3.45-6.06-.47-.78-.91-1.56-1.45-2.3-.47-.91-1.08-1.79-1.66-2.67-.41-.68-.85-1.32-1.29-1.96-.95-1.49-1.96-2.91-2.98-4.36-.03-.03-.03-.1-.07-.14-.98-1.32-1.89-2.64-2.88-3.92-.85-1.15-1.73-2.3-2.61-3.42-1.12-1.42-2.23-2.81-3.38-4.2-.37-.44-.71-.85-1.12-1.29-.54-.68-1.15-1.35-1.76-2.03-.27-.3-.51-.64-.85-.95-.14-.27-.37-.51-.61-.74-.14-.14-.27-.3-.37-.44-1.39-1.52-2.74-2.98-4.16-4.43-1.05-1.12-2.1-2.2-3.21-3.25-1.29-1.32-2.64-2.57-3.96-3.86h-.03c-1.25-1.18-2.54-2.33-3.82-3.48-2.88-2.54-5.89-4.97-8.9-7.34-.14-.07-.17-.14-.3-.17-6.83-5.31-14.04-10.12-21.62-14.38h-.03s-.07-.07-.14-.1c-18.91-10.66-39.89-18.03-62.19-21.38-8.93-1.35-18.07-2.06-27.41-2.06H220.62c-3.68,0-7.2-1.46-9.8-4.06l-33.17-33.17c-8.73-8.73-2.55-23.67,9.8-23.67h486.17c18.85,0,37.18,2.13,54.81,6.23,40.09,9.2,76.4,28.32,106.24,54.68h.03c1.69,1.52,3.32,3.01,5.01,4.57,1.42,1.29,2.77,2.64,4.2,3.99,1.18,1.15,2.37,2.33,3.55,3.55,1.76,1.76,3.45,3.59,5.18,5.45,2.17,2.3,4.2,4.64,6.26,7,1.26,1.47,2.45,2.96,3.68,4.43,2.17,2.59,4.23,5.27,6.25,7.98.77,1.04,1.55,2.09,2.32,3.15.91,1.32,1.86,2.67,2.81,4.03,1.93,2.71,3.76,5.48,5.52,8.26.85,1.39,1.73,2.81,2.57,4.23.88,1.42,1.73,2.84,2.54,4.26.3.44.58.91.81,1.35,10.29,18,18.3,37.46,23.68,57.96.2.51.3,1.05.44,1.59,5.01,19.46,7.71,39.86,7.71,60.9Z"/>
</svg>